# xmcd
#
# Track frame offsets:
#	150
#	25200
#	49863
#	72447
#	95533
#	117796
#	140911
#	156934
#	165468
#	179119
#	207444
#	225086
#
# Disc length: 3180 seconds
#
# Revision: 0
# Processed by: cddbd v1.5.1PL0 Copyright (c) Steve Scherf et al.
# Submitted via: dBpowerAMP V4.0
#
DISCID=a80c6a0c
DTITLE=Scott Miller - Days of Reckoning
DYEAR=2004
DGENRE=Blues
TTITLE0=Bad Memory
TTITLE1=Spanish Harlem Princess
TTITLE2=Days of Reckoning
TTITLE3=Circle of Fate
TTITLE4=Yesterday is Gone
TTITLE5=40 Days and 40 Nights
TTITLE6=Cry Me a River
TTITLE7=P-Trap
TTITLE8=Sugar Cane
TTITLE9=When I'm Gone
TTITLE10=Knockin' On My Door
TTITLE11=You Rescued Me
EXTD=
EXTT0=
EXTT1=
EXTT2=
EXTT3=
EXTT4=
EXTT5=
EXTT6=
EXTT7=
EXTT8=
EXTT9=
EXTT10=
EXTT11=
PLAYORDER=
